<svg width="24" height="24" viewBox="0 0 24 24" fill="none" xmlns="http://www.w3.org/2000/svg">
<path d="M6.69999 6.3C5.19999 6.3 3.89999 5 3.89999 3.4C3.89999 1.8 5.09999 0.5 6.59999 0.5C8.09999 0.5 9.29999 1.8 9.29999 3.4C9.39999 5 8.19999 6.3 6.69999 6.3ZM6.69999 1.5C5.69999 1.5 4.99999 2.3 4.99999 3.4C4.99999 4.4 5.79999 5.3 6.69999 5.3C7.69999 5.3 8.39999 4.5 8.39999 3.4C8.39999 2.3 7.69999 1.5 6.69999 1.5Z" fill="white"/>
<path d="M17.4 6.3C15.9 6.3 14.7 5 14.7 3.4C14.7 1.8 15.9 0.5 17.4 0.5C18.9 0.5 20.1 1.8 20.1 3.4C20.1 5 18.9 6.3 17.4 6.3ZM17.4 1.5C16.4 1.5 15.7 2.3 15.7 3.4C15.7 4.4 16.5 5.3 17.4 5.3C18.4 5.3 19.1 4.5 19.1 3.4C19.1 2.3 18.4 1.5 17.4 1.5Z" fill="white"/>
<path d="M17 23.5C16.2 23.5 15.7 23.4 15.3 23.3C15.1 23.2 15 23.1 15 22.9C15 22.8 14.9 21.4 15.1 15C14.4 15.3 13.3 15.6 12 15.6C10.9 15.6 9.89998 15.4 8.89998 15C8.89998 16.4 8.99998 19.5 8.89998 22.9C8.89998 23.1 8.69999 23.3 8.49999 23.4C8.39999 23.4 7.19999 23.6 5.89999 23.6C5.29999 23.6 4.69999 23.5 4.39999 23.4C4.09999 23.2 3.99999 23 3.89999 22.8C3.89999 22.7 3.69999 14.6 3.89999 8.00001C3.89999 7.80001 3.99998 7.60001 4.19998 7.50001C4.39998 7.40001 4.59998 7.50001 4.69998 7.60001C4.69998 7.60001 7.99998 11.3 12.2 11.3C14.7 11.3 17 10.1 19.2 7.60001C19.3 7.40001 19.6 7.40001 19.8 7.50001C20 7.60001 20.1 7.80001 20.1 8.00001C20.1 8.10001 20.1 17.4 20.1 22.8C20.1 23.1 19.9 23.3 19.7 23.3C19.6 23.3 18.2 23.5 17 23.5ZM16 22.4C16.2 22.4 16.5 22.5 17 22.5C17.8 22.5 18.6 22.4 19.1 22.4C19.1 18.2 19.1 12 19.1 9.30001C17 11.4 14.7 12.4 12.3 12.4C8.89998 12.4 6.19999 10.4 4.89999 9.20001C4.79999 14.6 4.89999 20.8 4.89999 22.4C5.69999 22.5 7.09999 22.4 7.79999 22.3C7.89999 17.9 7.79999 14.2 7.79999 14.1C7.79999 13.9 7.89999 13.8 7.99999 13.7C8.09999 13.6 8.29999 13.6 8.49999 13.7C9.59999 14.3 10.7 14.5 11.9 14.5C13.9 14.5 15.2 13.7 15.3 13.7C15.5 13.6 15.7 13.6 15.8 13.7C16 13.8 16.1 14 16 14.1C16 19.5 16 21.7 16 22.4Z" fill="white"/>
</svg>
